<svg width="98" height="98" viewBox="0 0 98 98" fill="none" xmlns="http://www.w3.org/2000/svg">
<path d="M48.895 97.79C75.899 97.79 97.79 75.899 97.79 48.895C97.79 21.891 75.899 0 48.895 0C21.891 0 0 21.891 0 48.895C0 75.899 21.891 97.79 48.895 97.79Z" fill="url(#paint0_linear)"/>
<path d="M48.8955 91.3705C72.3539 91.3705 91.3708 72.3537 91.3708 48.8952C91.3708 25.4368 72.3539 6.41992 48.8955 6.41992C25.437 6.41992 6.42017 25.4368 6.42017 48.8952C6.42017 72.3537 25.437 91.3705 48.8955 91.3705Z" stroke="white" stroke-width="2" stroke-miterlimit="10"/>
<g clip-path="url(#clip0)">
<path d="M73.0069 32.5021C72.8267 31.3296 72.013 30.3199 70.8831 29.8671L49.9519 21.4787C49.0882 21.1328 48.137 21.1328 47.2732 21.4787L26.342 29.8671C25.2122 30.3199 24.3984 31.3296 24.2182 32.5021C23.7788 35.3633 23.042 42.9334 25.6843 51.4089C27.1538 56.1223 29.4565 60.46 32.5284 64.3015C36.216 68.9129 41.055 72.8561 46.9111 76.0215C47.4359 76.305 48.0242 76.4468 48.6126 76.4468C49.2009 76.4468 49.7893 76.305 50.314 76.0214C56.1701 72.856 61.0091 68.9128 64.6967 64.3014C67.7685 60.4599 70.0712 56.1222 71.5407 51.4088C74.1831 42.9334 73.4462 35.3633 73.0069 32.5021ZM69.942 50.9419C66.8023 61.0122 59.9247 68.9753 49.4998 74.6104C48.9529 74.906 48.2729 74.9061 47.7257 74.6104C37.3006 68.9754 30.4228 61.0122 27.2832 50.9419C24.7384 42.7793 25.4473 35.4932 25.8702 32.7396C25.9645 32.1256 26.3902 31.5971 26.9811 31.3604L47.9122 22.972C48.1381 22.8815 48.3754 22.8362 48.6127 22.8362C48.8499 22.8362 49.0873 22.8815 49.3131 22.972L70.2443 31.3604C70.8351 31.5972 71.2607 32.1256 71.3549 32.7396C71.7779 35.4933 72.4867 42.7794 69.942 50.9419Z" fill="white"/>
<path d="M66.5583 33.6646L58.3773 30.4336C57.9501 30.2651 57.4628 30.4633 57.2887 30.8765C57.1146 31.2897 57.3193 31.7614 57.7463 31.93L65.9273 35.161C66.3473 35.3268 66.6495 35.6951 66.716 36.1219C67.0538 38.2895 67.6201 44.0248 65.5871 50.451C63.0793 58.378 57.5825 64.6481 49.2494 69.0871C48.8566 69.2963 48.3684 69.2963 47.9756 69.0871C39.6424 64.6481 34.1455 58.3781 31.6377 50.451C29.6046 44.025 30.1708 38.2896 30.5086 36.1219C30.5752 35.695 30.8773 35.3268 31.2974 35.161L48.1088 28.5215C48.4287 28.3951 48.7961 28.395 49.1161 28.5215L54.1651 30.5157C54.5922 30.6842 55.0796 30.4859 55.2537 30.0728C55.4279 29.6595 55.2231 29.1878 54.796 29.0192L49.7469 27.0251C49.0152 26.7361 48.2094 26.7364 47.4777 27.0251L30.6663 33.6646C29.7043 34.0445 29.011 34.8939 28.8572 35.8809C28.5024 38.1577 27.9074 44.1811 30.0407 50.9241C31.2274 54.6753 33.087 58.1275 35.5677 61.1845C38.5436 64.8519 42.4472 67.987 47.1702 70.5029C47.615 70.7399 48.1136 70.8583 48.6124 70.8583C49.111 70.8582 49.6098 70.7399 50.0546 70.5029C54.7777 67.9871 58.6813 64.8519 61.6571 61.1845C64.1377 58.1275 65.9972 54.6752 67.1839 50.9241C69.3172 44.181 68.7222 38.1576 68.3673 35.8809C68.2135 34.8937 67.5203 34.0445 66.5583 33.6646Z" fill="white"/>
<path d="M46.949 58.6331H50.2775C51.4691 58.6331 52.4386 57.6994 52.4386 56.5517V52.9796C52.4386 52.7231 52.6587 52.5143 52.9294 52.5143H56.6496C57.8412 52.5143 58.8106 51.5806 58.8106 50.4331V47.237C58.8106 46.0893 57.8412 45.1556 56.6496 45.1556H52.9294C52.6587 45.1556 52.4386 44.947 52.4386 44.6905V41.1183C52.4386 39.9707 51.4692 39.037 50.2775 39.037H46.949C45.7574 39.037 44.7879 39.9706 44.7879 41.1183V44.6905C44.7879 44.9469 44.5677 45.1556 44.2971 45.1556H40.5768C39.3853 45.1556 38.4158 46.0893 38.4158 47.237V50.4331C38.4158 51.4746 39.2236 52.3618 40.2949 52.4968C40.7525 52.555 41.1711 52.2422 41.2307 51.7997C41.2903 51.3572 40.9677 50.9518 40.5105 50.8941C40.2685 50.8636 40.0859 50.6654 40.0859 50.4332V47.2371C40.0859 46.9806 40.3062 46.7719 40.5768 46.7719H44.2971C45.4886 46.7719 46.4581 45.8382 46.4581 44.6906V41.1184C46.4581 40.862 46.6783 40.6533 46.949 40.6533H50.2775C50.5483 40.6533 50.7684 40.8619 50.7684 41.1184V44.6906C50.7684 45.8382 51.7378 46.7719 52.9293 46.7719H56.6495C56.9202 46.7719 57.1405 46.9805 57.1405 47.2371V50.4332C57.1405 50.6896 56.9202 50.8983 56.6495 50.8983H52.9293C51.7378 50.8983 50.7684 51.832 50.7684 52.9797V56.5518C50.7684 56.8083 50.5483 57.017 50.2775 57.017H46.949C46.6783 57.017 46.4581 56.8084 46.4581 56.5518V52.9797C46.4581 51.8321 45.4887 50.8983 44.2971 50.8983C43.8358 50.8983 43.462 51.2601 43.462 51.7064C43.462 52.1528 43.8358 52.5146 44.2971 52.5146C44.5677 52.5146 44.7879 52.7232 44.7879 52.9798V56.5519C44.788 57.6994 45.7574 58.6331 46.949 58.6331Z" fill="white"/>
</g>
<defs>
<linearGradient id="paint0_linear" x1="14.3198" y1="14.3198" x2="83.4627" y2="83.4627" gradientUnits="userSpaceOnUse">
<stop stop-color="#61AA36"/>
<stop offset="1" stop-color="#378D84"/>
</linearGradient>
<clipPath id="clip0">
<rect width="57.0685" height="55.2275" fill="white" transform="translate(20.0784 21.2192)"/>
</clipPath>
</defs>
</svg>
