<svg width="99" height="99" viewBox="0 0 99 99" fill="none" xmlns="http://www.w3.org/2000/svg">
<path d="M49.5 99C76.8381 99 99 76.8381 99 49.5C99 22.1619 76.8381 0 49.5 0C22.1619 0 0 22.1619 0 49.5C0 76.8381 22.1619 99 49.5 99Z" fill="url(#paint0_linear)"/>
<path d="M49.4994 92.5009C73.2481 92.5009 92.5003 73.2487 92.5003 49.5C92.5003 25.7513 73.2481 6.49915 49.4994 6.49915C25.7507 6.49915 6.49854 25.7513 6.49854 49.5C6.49854 73.2487 25.7507 92.5009 49.4994 92.5009Z" stroke="white" stroke-width="2" stroke-miterlimit="10"/>
<g clip-path="url(#clip0)">
<path d="M23.4821 30.7404C23.9694 30.7404 24.3645 30.3453 24.3645 29.8579C24.3645 29.3706 23.9694 28.9755 23.4821 28.9755C22.9947 28.9755 22.5996 29.3706 22.5996 29.8579C22.5996 30.3453 22.9947 30.7404 23.4821 30.7404Z" fill="white"/>
<path d="M25.2472 37.8002C25.7346 37.8002 26.1297 37.4051 26.1297 36.9177C26.1297 36.4304 25.7346 36.0353 25.2472 36.0353C24.7598 36.0353 24.3647 36.4304 24.3647 36.9177C24.3647 37.4051 24.7598 37.8002 25.2472 37.8002Z" fill="white"/>
<path d="M30.3214 34.2703C30.8088 34.2703 31.2039 33.8752 31.2039 33.3878C31.2039 32.9005 30.8088 32.5054 30.3214 32.5054C29.8341 32.5054 29.439 32.9005 29.439 33.3878C29.439 33.8752 29.8341 34.2703 30.3214 34.2703Z" fill="white"/>
<path d="M28.5565 41.3302C29.0439 41.3302 29.439 40.9351 29.439 40.4478C29.439 39.9604 29.0439 39.5653 28.5565 39.5653C28.0692 39.5653 27.6741 39.9604 27.6741 40.4478C27.6741 40.9351 28.0692 41.3302 28.5565 41.3302Z" fill="white"/>
<path d="M25.2472 51.9201C25.7346 51.9201 26.1297 51.525 26.1297 51.0376C26.1297 50.5502 25.7346 50.1552 25.2472 50.1552C24.7598 50.1552 24.3647 50.5502 24.3647 51.0376C24.3647 51.525 24.7598 51.9201 25.2472 51.9201Z" fill="white"/>
<path d="M23.4821 44.8601C23.9694 44.8601 24.3645 44.465 24.3645 43.9777C24.3645 43.4903 23.9694 43.0952 23.4821 43.0952C22.9947 43.0952 22.5996 43.4903 22.5996 43.9777C22.5996 44.465 22.9947 44.8601 23.4821 44.8601Z" fill="white"/>
<path d="M30.3214 48.3899C30.8088 48.3899 31.2039 47.9948 31.2039 47.5075C31.2039 47.0201 30.8088 46.625 30.3214 46.625C29.8341 46.625 29.439 47.0201 29.439 47.5075C29.439 47.9948 29.8341 48.3899 30.3214 48.3899Z" fill="white"/>
<path d="M23.4821 73.0996C23.9694 73.0996 24.3645 72.7045 24.3645 72.2172C24.3645 71.7298 23.9694 71.3347 23.4821 71.3347C22.9947 71.3347 22.5996 71.7298 22.5996 72.2172C22.5996 72.7045 22.9947 73.0996 23.4821 73.0996Z" fill="white"/>
<path d="M25.2472 66.0399C25.7346 66.0399 26.1297 65.6448 26.1297 65.1575C26.1297 64.6701 25.7346 64.275 25.2472 64.275C24.7598 64.275 24.3647 64.6701 24.3647 65.1575C24.3647 65.6448 24.7598 66.0399 25.2472 66.0399Z" fill="white"/>
<path d="M30.3214 69.5696C30.8088 69.5696 31.2039 69.1745 31.2039 68.6871C31.2039 68.1998 30.8088 67.8047 30.3214 67.8047C29.8341 67.8047 29.439 68.1998 29.439 68.6871C29.439 69.1745 29.8341 69.5696 30.3214 69.5696Z" fill="white"/>
<path d="M28.5568 62.5097C29.0441 62.5097 29.4392 62.1146 29.4392 61.6272C29.4392 61.1398 29.0441 60.7448 28.5568 60.7448C28.0694 60.7448 27.6743 61.1398 27.6743 61.6272C27.6743 62.1146 28.0694 62.5097 28.5568 62.5097Z" fill="white"/>
<path d="M23.4821 58.9798C23.9694 58.9798 24.3645 58.5847 24.3645 58.0973C24.3645 57.6099 23.9694 57.2148 23.4821 57.2148C22.9947 57.2148 22.5996 57.6099 22.5996 58.0973C22.5996 58.5847 22.9947 58.9798 23.4821 58.9798Z" fill="white"/>
<path d="M30.3214 55.4501C30.8088 55.4501 31.2039 55.055 31.2039 54.5676C31.2039 54.0803 30.8088 53.6852 30.3214 53.6852C29.8341 53.6852 29.439 54.0803 29.439 54.5676C29.439 55.055 29.8341 55.4501 30.3214 55.4501Z" fill="white"/>
<path d="M37.3815 48.3265H47.9714C48.4238 48.3265 48.7904 47.9598 48.7904 47.5075V27.4309C48.7904 26.9786 48.4238 26.6119 47.9714 26.6119H37.3815C36.9291 26.6119 36.5625 26.9786 36.5625 27.4309V47.5075C36.5625 47.9598 36.9292 48.3265 37.3815 48.3265ZM41.7304 46.6885V28.25H43.6223V46.6885H41.7304ZM47.1524 46.6885H45.2605V28.25H47.1524V46.6885ZM38.2005 28.25H40.0924V46.6885H38.2005V28.25Z" fill="white"/>
<path d="M36.5625 74.644C36.5625 75.0963 36.9291 75.463 37.3815 75.463H47.9714C48.4238 75.463 48.7904 75.0963 48.7904 74.644V54.5674C48.7904 54.1151 48.4238 53.7484 47.9714 53.7484H37.3815C36.9291 53.7484 36.5625 54.1151 36.5625 54.5674V74.644ZM41.7304 73.825V55.3864H43.6223V73.825H41.7304ZM47.1524 73.825H45.2605V55.3864H47.1524V73.825ZM38.2005 55.3864H40.0924V73.825H38.2005V55.3864Z" fill="white"/>
<path d="M75.2457 39.5928C74.9257 39.2729 74.4073 39.2729 74.0874 39.5928C73.7676 39.9126 73.7676 40.4312 74.0874 40.751L74.8955 41.5591H74.6666C74.2963 41.5591 74.157 41.4612 73.8793 41.2664C73.5246 41.0175 73.0387 40.6766 72.1513 40.6766C71.2638 40.6766 70.778 41.0175 70.4233 41.2664C70.1456 41.4613 70.0062 41.5591 69.6359 41.5591C69.2659 41.5591 69.1265 41.4612 68.8489 41.2664C68.4942 41.0174 68.0084 40.6766 67.121 40.6766C66.8616 40.6766 66.6374 40.7063 66.4398 40.7537V32.7161C66.6533 32.5704 66.8011 32.4969 67.121 32.4969C67.491 32.4969 67.6303 32.5947 67.9079 32.7896C68.2626 33.0385 68.7485 33.3795 69.6359 33.3795C70.5235 33.3795 71.0094 33.0385 71.364 32.7897C71.6417 32.5947 71.7811 32.497 72.1513 32.497C72.5215 32.497 72.6608 32.5949 72.9385 32.7897C73.2932 33.0385 73.779 33.3795 74.6666 33.3795H74.8955L74.0874 34.1875C73.7676 34.5074 73.7676 35.026 74.0874 35.3457C74.2474 35.5056 74.4571 35.5856 74.6666 35.5856C74.8762 35.5856 75.0858 35.5057 75.2458 35.3457L77.452 33.1395C77.7718 32.8197 77.7718 32.3011 77.452 31.9814L75.2457 29.7752C74.9257 29.4553 74.4073 29.4553 74.0874 29.7752C73.7676 30.095 73.7676 30.6136 74.0874 30.9334L74.8955 31.7414H74.6666C74.2964 31.7414 74.157 31.6436 73.8793 31.4488C73.5246 31.1999 73.0387 30.859 72.1513 30.859C71.2638 30.859 70.778 31.1999 70.4233 31.4488C70.1456 31.6437 70.0061 31.7414 69.6359 31.7414C69.2659 31.7414 69.1265 31.6436 68.8489 31.4488C68.4942 31.1998 68.0084 30.8589 67.121 30.8589C66.8617 30.8589 66.6374 30.8886 66.4398 30.936V26.1069C66.4398 24.439 65.0828 23.082 63.415 23.082H36.0578C34.39 23.082 33.033 24.439 33.033 26.1069V62.805C33.033 63.2573 33.3995 63.624 33.852 63.624C34.3044 63.624 34.671 63.2573 34.671 62.805V26.1069C34.671 25.3422 35.2931 24.72 36.0578 24.72H63.4149C64.1796 24.72 64.8017 25.3422 64.8017 26.1069V31.7286C64.7432 31.7364 64.6801 31.7414 64.606 31.7414C64.2361 31.7414 64.0967 31.6436 63.8191 31.4488C63.593 31.2901 63.313 31.0943 62.9102 30.973V27.431C62.9102 26.9786 62.5437 26.612 62.0912 26.612H51.5014C51.0489 26.612 50.6824 26.9786 50.6824 27.431V47.5076C50.6824 47.9599 51.0489 48.3266 51.5014 48.3266H62.0912C62.5437 48.3266 62.9102 47.9599 62.9102 47.5076V42.6298C63.2622 42.8762 63.7448 43.1972 64.606 43.1972C64.6738 43.1972 64.7385 43.1946 64.8017 43.1908V46.3332C64.8017 46.7855 65.1683 47.1522 65.6207 47.1522C66.0731 47.1522 66.4397 46.7855 66.4397 46.3332V42.5339C66.6532 42.3882 66.801 42.3147 67.1209 42.3147C67.4909 42.3147 67.6302 42.4126 67.9078 42.6074C68.2625 42.8562 68.7483 43.1972 69.6358 43.1972C70.5234 43.1972 71.0092 42.8562 71.3639 42.6074C71.6416 42.4126 71.781 42.3147 72.1512 42.3147C72.5214 42.3147 72.6607 42.4126 72.9384 42.6074C73.2931 42.8564 73.7789 43.1972 74.6665 43.1972H74.8954L74.0873 44.0053C73.7674 44.3251 73.7674 44.8437 74.0873 45.1634C74.2473 45.3233 74.4569 45.4034 74.6665 45.4034C74.8761 45.4034 75.0857 45.3234 75.2457 45.1634L77.4519 42.9573C77.7717 42.6374 77.7717 42.1188 77.4519 41.7991L75.2457 39.5928ZM57.7422 28.25V46.6885H55.8503V28.25H57.7422ZM52.3204 28.25H54.2123V46.6885H52.3204V28.25ZM61.2722 46.6885H59.3803V28.25H61.2722V46.6885ZM64.606 41.5591C64.2361 41.5591 64.0967 41.4612 63.8191 41.2664C63.593 41.1077 63.313 40.9119 62.9102 40.7907V32.8121C63.2622 33.0585 63.7448 33.3795 64.606 33.3795C64.6738 33.3795 64.7385 33.3768 64.8017 33.373V41.5462C64.7432 41.554 64.6801 41.5591 64.606 41.5591Z" fill="white"/>
<path d="M74.0874 62.4824C74.2474 62.6422 74.4571 62.7223 74.6666 62.7223C74.8762 62.7223 75.0858 62.6423 75.2458 62.4824L77.452 60.2762C77.7718 59.9563 77.7718 59.4377 77.452 59.118L75.2458 56.9118C74.9258 56.5919 74.4074 56.5919 74.0875 56.9118C73.7677 57.2316 73.7677 57.7502 74.0875 58.07L74.8956 58.8781H74.6667C74.2965 58.8781 74.1571 58.7802 73.8794 58.5854C73.5247 58.3365 73.0389 57.9956 72.1514 57.9956C71.2639 57.9956 70.7781 58.3365 70.4234 58.5854C70.1457 58.7803 70.0062 58.8781 69.636 58.8781C69.266 58.8781 69.1266 58.7802 68.849 58.5854C68.4943 58.3364 68.0085 57.9955 67.1211 57.9955C66.8618 57.9955 66.6375 58.0252 66.4399 58.0726V50.1553C66.4399 49.703 66.0734 49.3363 65.6209 49.3363C65.1685 49.3363 64.8019 49.703 64.8019 50.1553V58.8652C64.7434 58.873 64.6803 58.8781 64.6062 58.8781C64.2363 58.8781 64.0969 58.7802 63.8193 58.5854C63.5932 58.4267 63.3132 58.2309 62.9105 58.1096V54.5676C62.9105 54.1153 62.5439 53.7486 62.0915 53.7486H51.5016C51.0492 53.7486 50.6826 54.1153 50.6826 54.5676V74.6442C50.6826 75.0965 51.0492 75.4632 51.5016 75.4632H62.0915C62.5439 75.4632 62.9105 75.0965 62.9105 74.6442V69.7664C63.2624 70.0129 63.745 70.3338 64.6062 70.3338C64.6741 70.3338 64.7387 70.3312 64.8019 70.3275V75.9682C64.8019 76.733 64.1798 77.3551 63.4151 77.3551H36.0578C35.2931 77.3551 34.671 76.733 34.671 75.9682V66.6272C34.671 66.1749 34.3044 65.8082 33.852 65.8082C33.3995 65.8082 33.033 66.1749 33.033 66.6272V75.9682C33.033 77.6362 34.3899 78.9931 36.0578 78.9931H63.4149C65.0828 78.9931 66.4397 77.6362 66.4397 75.9682V69.6704C66.6532 69.5247 66.801 69.4512 67.1209 69.4512C67.4909 69.4512 67.6302 69.5491 67.9078 69.7439C68.2625 69.9928 68.7483 70.3337 69.6358 70.3337C70.5234 70.3337 71.0092 69.9928 71.3639 69.7439C71.6416 69.5491 71.781 69.4512 72.1512 69.4512C72.5214 69.4512 72.6607 69.5491 72.9384 69.7439C73.2931 69.9929 73.7789 70.3337 74.6665 70.3337H74.8954L74.0873 71.1418C73.7674 71.4616 73.7674 71.9802 74.0873 72.3C74.2473 72.4598 74.4569 72.5399 74.6665 72.5399C74.8761 72.5399 75.0857 72.4599 75.2457 72.3L77.4519 70.0938C77.7717 69.7739 77.7717 69.2553 77.4519 68.9356L75.2457 66.7294C74.9257 66.4096 74.4073 66.4096 74.0874 66.7294C73.7676 67.0493 73.7676 67.5679 74.0874 67.8876L74.8955 68.6957H74.6666C74.2963 68.6957 74.157 68.5978 73.8793 68.403C73.5246 68.1542 73.0387 67.8132 72.1513 67.8132C71.2638 67.8132 70.778 68.1542 70.4233 68.403C70.1456 68.5979 70.0062 68.6957 69.6359 68.6957C69.2659 68.6957 69.1265 68.5978 68.8489 68.403C68.4942 68.154 68.0084 67.8132 67.121 67.8132C66.8616 67.8132 66.6374 67.8429 66.4398 67.8903V59.8527C66.6533 59.707 66.8011 59.6335 67.121 59.6335C67.491 59.6335 67.6303 59.7314 67.9079 59.9262C68.2626 60.1752 68.7485 60.5161 69.6359 60.5161C70.5235 60.5161 71.0094 60.1752 71.364 59.9263C71.6417 59.7314 71.7811 59.6336 72.1513 59.6336C72.5215 59.6336 72.6608 59.7315 72.9385 59.9263C73.2932 60.1752 73.779 60.5161 74.6666 60.5161H74.8955L74.0874 61.3242C73.7676 61.6439 73.7676 62.1625 74.0874 62.4824ZM57.7422 55.3866V73.8252H55.8503V55.3866H57.7422ZM52.3204 55.3866H54.2123V73.8252H52.3204V55.3866ZM61.2722 73.8252H59.3803V55.3866H61.2722V73.8252ZM64.606 68.6957C64.2361 68.6957 64.0967 68.5978 63.8191 68.403C63.593 68.2444 63.313 68.0486 62.9102 67.9273V59.9487C63.2622 60.1951 63.7448 60.5161 64.606 60.5161C64.6738 60.5161 64.7385 60.5135 64.8017 60.5096V68.6828C64.7432 68.6907 64.6801 68.6957 64.606 68.6957Z" fill="white"/>
</g>
<defs>
<linearGradient id="paint0_linear" x1="14.497" y1="14.497" x2="84.4954" y2="84.4954" gradientUnits="userSpaceOnUse">
<stop stop-color="#61AA36"/>
<stop offset="1" stop-color="#378D84"/>
</linearGradient>
<clipPath id="clip0">
<rect width="55.9109" height="55.9109" fill="white" transform="translate(22.1897 23.082)"/>
</clipPath>
</defs>
</svg>
