<svg width="103" height="103" viewBox="0 0 103 103" fill="none" xmlns="http://www.w3.org/2000/svg">
<path d="M51.5 103C79.9427 103 103 79.9427 103 51.5C103 23.0573 79.9427 0 51.5 0C23.0573 0 0 23.0573 0 51.5C0 79.9427 23.0573 103 51.5 103Z" fill="url(#paint0_linear)"/>
<path d="M51.4998 96.2382C76.208 96.2382 96.238 76.2081 96.238 51.4999C96.238 26.7916 76.208 6.7616 51.4998 6.7616C26.7915 6.7616 6.76147 26.7916 6.76147 51.4999C6.76147 76.2081 26.7915 96.2382 51.4998 96.2382Z" stroke="white" stroke-width="2" stroke-miterlimit="10"/>
<g clip-path="url(#clip0)">
<path d="M72.5822 41.2069C74.4985 39.828 75.7421 37.6219 75.7421 35.1404C75.7421 30.4322 69.509 24.9685 68.7981 24.3611C68.3028 23.9375 67.5621 23.9329 67.0608 24.3495C66.9911 24.4076 65.332 25.7933 63.6555 27.7568C63.3645 28.0975 63.0915 28.434 62.8361 28.7661C57.582 23.0121 53.0834 19.1514 52.8823 18.9797C52.387 18.556 51.6463 18.5513 51.145 18.9681C50.8804 19.1881 44.5909 24.4417 38.1973 31.9297C34.4256 36.347 31.4157 40.6182 29.2513 44.6243C26.4987 49.7193 25.1028 54.4203 25.1028 58.5965C25.1025 72.9264 37.1716 84.5846 52.0066 84.5846C66.8416 84.5846 78.9106 72.9264 78.9106 58.5964C78.9106 53.5942 76.7823 47.7482 72.5822 41.2069ZM67.9128 27.0801C69.8874 28.9599 73.091 32.5537 73.091 35.1404C73.091 37.8883 70.7724 40.1239 67.9225 40.1239C65.0726 40.1239 62.754 37.8883 62.754 35.1404C62.754 32.4654 65.9422 28.9221 67.9128 27.0801ZM52.0066 82.0093C38.6333 82.0093 27.7535 71.5064 27.7535 58.5964C27.7535 43.7897 47.5601 25.5706 51.9962 21.6767C53.6212 23.1344 57.3275 26.5669 61.3413 31.0133C60.5181 32.4995 60.1029 33.8798 60.1029 35.1403C60.1029 39.3082 63.6107 42.699 67.9224 42.699C68.7159 42.699 69.4823 42.5841 70.2046 42.3706C74.2229 48.5765 76.2594 54.032 76.2594 58.5962C76.2597 71.5064 65.3798 82.0093 52.0066 82.0093Z" fill="white"/>
<path d="M70.5955 57.5704C70.4823 57.0408 70.0376 56.626 69.4847 56.548C68.9307 56.4697 68.3729 56.752 68.1175 57.2347C67.865 57.7119 67.95 58.3109 68.3281 58.7029C68.7014 59.0901 69.2994 59.2135 69.803 59.0112C70.3802 58.7792 70.718 58.1657 70.5955 57.5704Z" fill="white"/>
<path d="M68.6895 62.4317C68.0024 62.1853 67.2405 62.5264 66.987 63.1935C64.6825 69.2564 58.6622 73.3299 52.0063 73.3299C43.2039 73.3299 36.0427 66.3733 36.0427 57.8224C36.0427 49.2715 43.204 42.3147 52.0064 42.3147C58.6681 42.3147 64.69 46.3929 66.9915 52.4627C67.2445 53.1299 68.0064 53.4717 68.6934 53.226C69.3804 52.9802 69.7322 52.2399 69.4791 51.5727C68.1762 48.1363 65.8559 45.1949 62.769 43.0667C59.6119 40.89 55.8904 39.7395 52.0064 39.7395C41.7424 39.7395 33.3918 47.8514 33.3918 57.8224C33.3918 67.7933 41.7424 75.9051 52.0064 75.9051C55.8877 75.9051 59.6073 74.7561 62.763 72.5821C65.8484 70.4565 68.169 67.5184 69.4738 64.0855C69.7274 63.4184 69.3763 62.678 68.6895 62.4317Z" fill="white"/>
<path d="M50.5858 70.4477C50.7014 70.4782 50.8182 70.493 50.9337 70.493C51.395 70.493 51.8343 70.258 52.0766 69.8573L60.1696 56.4709C60.4102 56.0727 60.4131 55.5798 60.177 55.1791C59.941 54.7784 59.5019 54.5312 59.0266 54.5312H54.4056V46.4398C54.4056 45.8589 54.005 45.3499 53.4279 45.1974C52.8509 45.0448 52.2401 45.2866 51.9371 45.7878L43.8441 59.1742C43.6035 59.5723 43.6006 60.0651 43.8367 60.4659C44.0727 60.8667 44.5117 61.1139 44.9871 61.1139H49.6081V69.2052C49.6081 69.7861 50.0087 70.2952 50.5858 70.4477ZM47.3027 58.5385L51.7546 51.1748V55.8187C51.7546 56.5298 52.3482 57.1063 53.0801 57.1063H56.711L52.2591 64.47V59.8261C52.2591 59.115 51.6657 58.5385 50.9336 58.5385H47.3027Z" fill="white"/>
</g>
<defs>
<linearGradient id="paint0_linear" x1="15.0828" y1="15.0828" x2="87.9094" y2="87.9094" gradientUnits="userSpaceOnUse">
<stop stop-color="#61AA36"/>
<stop offset="1" stop-color="#378D84"/>
</linearGradient>
<clipPath id="clip0">
<rect width="67.8649" height="65.9259" fill="white" transform="translate(18.074 18.6587)"/>
</clipPath>
</defs>
</svg>
