<svg xmlns="http://www.w3.org/2000/svg" width="20" height="20" viewBox="0 0 20 20" fill="none"><g clip-path="url(#clip0)"><path d="M8.22957 2.63184H2.32617C2.16437 2.63184 2.0332 2.76297 2.0332 2.9248C2.0332 3.08664 2.16437 3.21777 2.32617 3.21777H8.22957C8.39137 3.21777 8.52254 3.08664 8.52254 2.9248C8.52254 2.76297 8.39137 2.63184 8.22957 2.63184Z" fill="#128391"></path><path d="M8.22957 4.56055H2.32617C2.16437 4.56055 2.0332 4.69168 2.0332 4.85352C2.0332 5.01535 2.16437 5.14648 2.32617 5.14648H8.22957C8.39137 5.14648 8.52254 5.01535 8.52254 4.85352C8.52254 4.69168 8.39137 4.56055 8.22957 4.56055Z" fill="#128391"></path><path d="M14.8823 14.2806V12.8368C15.3802 12.8724 15.5651 13.1 15.7357 13.1C15.9491 13.1 16.0487 12.8297 16.0487 12.6946C16.0487 12.3461 15.3659 12.1967 14.8823 12.1825V11.9905C14.8823 11.9051 14.7756 11.8269 14.6689 11.8269C14.548 11.8269 14.4627 11.9051 14.4627 11.9905V12.1967C13.7871 12.2678 13.1114 12.6235 13.1114 13.5196C13.1114 14.4299 13.8226 14.6859 14.4627 14.9135V16.5849C13.7373 16.528 13.5452 16.0301 13.3105 16.0301C13.1328 16.0301 12.9834 16.2648 12.9834 16.4355C12.9834 16.784 13.5808 17.2605 14.4627 17.2747V17.4952C14.4627 17.5806 14.548 17.6588 14.6689 17.6588C14.7756 17.6588 14.8823 17.5806 14.8823 17.4952V17.2534C15.6504 17.1467 16.1767 16.6632 16.1767 15.7883C16.1767 14.8211 15.5011 14.5082 14.8823 14.2806ZM14.5054 14.1455C14.1284 14.0032 13.8226 13.8539 13.8226 13.4485C13.8226 13.0786 14.1071 12.9008 14.5054 12.851V14.1455ZM14.8396 16.5707V15.07C15.1881 15.2194 15.4655 15.4185 15.4655 15.8666C15.4655 16.2719 15.2237 16.4995 14.8396 16.5707Z" fill="#128391"></path><path d="M19.8622 14.7324C19.8622 11.8279 17.4992 9.46484 14.5947 9.46484C11.6902 9.46484 9.32715 11.8279 9.32715 14.7324C9.32715 17.6369 11.6902 20 14.5947 20H14.6704C14.6941 20 14.7177 19.9992 14.7412 19.9979C17.5783 19.92 19.8622 17.5879 19.8622 14.7324ZM14.728 19.4121C14.7265 19.4121 14.725 19.4121 14.7235 19.4122C14.6807 19.4133 14.6378 19.414 14.5947 19.414C12.0132 19.414 9.91309 17.3139 9.91309 14.7324C9.91309 12.151 12.0132 10.0508 14.5947 10.0508C17.1761 10.0508 19.2763 12.151 19.2763 14.7324C19.2763 17.2693 17.248 19.3413 14.728 19.4121Z" fill="#128391"></path><path d="M14.5936 10.5969C12.3132 10.5969 10.458 12.4521 10.458 14.7325C10.458 17.0128 12.3132 18.868 14.5936 18.868C16.8739 18.868 18.7291 17.0128 18.7291 14.7325C18.7291 12.4521 16.8739 10.5969 14.5936 10.5969ZM14.5936 18.2821C12.6363 18.2821 11.0439 16.6897 11.0439 14.7325C11.0439 12.7752 12.6363 11.1829 14.5936 11.1829C16.5508 11.1829 18.1432 12.7752 18.1432 14.7325C18.1432 16.6897 16.5508 18.2821 14.5936 18.2821Z" fill="#128391"></path><path d="M10.9768 19.4141H1.46574C1.05707 19.4141 0.724609 19.0816 0.724609 18.6729V1.32707C0.724609 0.918398 1.05707 0.585938 1.46574 0.585938H10.8505V4.07215C10.8505 4.66453 11.3324 5.14648 11.9248 5.14648H15.4111V8.48312C15.4111 8.64496 15.5422 8.77609 15.704 8.77609C15.8658 8.77609 15.997 8.64496 15.997 8.48312V4.85352C15.997 4.77582 15.9661 4.70133 15.9112 4.64633L11.3506 0.0857813C11.2957 0.0308594 11.2212 0 11.1435 0H1.46574C0.733984 0 0.138672 0.595312 0.138672 1.32707V18.6729C0.138672 19.4047 0.733984 20 1.46574 20H10.9768C11.1386 20 11.2698 19.8689 11.2698 19.707C11.2698 19.5452 11.1386 19.4141 10.9768 19.4141ZM11.4364 4.07215V1.00023L14.9968 4.56055H11.9248C11.6555 4.56055 11.4364 4.34148 11.4364 4.07215Z" fill="#128391"></path></g><defs><clipPath id="clip0"><rect width="20" height="20" fill="white"></rect></clipPath></defs></svg>