<svg xmlns="http://www.w3.org/2000/svg" width="99" height="99" viewBox="0 0 99 99" fill="none"><path d="M49.5 99C76.8381 99 99 76.8381 99 49.5C99 22.1619 76.8381 0 49.5 0C22.1619 0 0 22.1619 0 49.5C0 76.8381 22.1619 99 49.5 99Z" fill="#185057"></path><path d="M45.8124 30.7275C35.3387 30.7275 26.8438 39.2225 26.8438 49.6962C26.8438 60.1699 35.3387 68.6648 45.8124 68.6648" stroke="white" stroke-width="5" stroke-miterlimit="10"></path><path d="M72.5585 30.7275C62.0848 30.7275 53.5898 39.2225 53.5898 49.6962C53.5898 60.1699 62.0848 68.6648 72.5585 68.6648" stroke="white" stroke-width="5" stroke-miterlimit="10"></path><path d="M68.3429 48.0394H53.884V51.9602H68.3429V48.0394Z" fill="white"></path></svg>