<svg xmlns="http://www.w3.org/2000/svg" width="99" height="99" viewBox="0 0 99 99" fill="none"><circle cx="49.5" cy="49.5" r="49.5" fill="#185057"></circle><path d="M76.4189 62.4521H76.1436V63H75.8965V61.5781H76.3965C76.5605 61.5781 76.6872 61.6149 76.7764 61.6885C76.8656 61.762 76.9102 61.8685 76.9102 62.0078C76.9102 62.1029 76.887 62.1826 76.8408 62.2471C76.7952 62.3109 76.7314 62.36 76.6494 62.3945L76.9688 62.9873V63H76.7041L76.4189 62.4521ZM76.1436 62.2539H76.3975C76.4808 62.2539 76.5459 62.2331 76.5928 62.1914C76.6396 62.1491 76.6631 62.0915 76.6631 62.0186C76.6631 61.9424 76.6413 61.8835 76.5977 61.8418C76.5547 61.8001 76.4902 61.7786 76.4043 61.7773H76.1436V62.2539Z" fill="white"></path><circle cx="76.5" cy="62.5" r="1.375" stroke="white" stroke-width="0.25"></circle><path d="M37.918 64H32.9766L20.3008 43.8242V64H15.3594V35.5625H20.3008L33.0156 55.8164V35.5625H37.918V64ZM58.6211 56.6758C58.6211 55.4258 58.1784 54.4622 57.293 53.7852C56.4206 53.1081 54.8385 52.4245 52.5469 51.7344C50.2552 51.0443 48.4323 50.276 47.0781 49.4297C44.487 47.8021 43.1914 45.6797 43.1914 43.0625C43.1914 40.7708 44.1224 38.8828 45.9844 37.3984C47.8594 35.9141 50.2878 35.1719 53.2695 35.1719C55.2487 35.1719 57.013 35.5365 58.5625 36.2656C60.112 36.9948 61.3294 38.0365 62.2148 39.3906C63.1003 40.7318 63.543 42.2227 63.543 43.8633H58.6211C58.6211 42.3789 58.1523 41.2201 57.2148 40.3867C56.2904 39.5404 54.9622 39.1172 53.2305 39.1172C51.6159 39.1172 50.3594 39.4622 49.4609 40.1523C48.5755 40.8424 48.1328 41.806 48.1328 43.043C48.1328 44.0846 48.6146 44.957 49.5781 45.6602C50.5417 46.3503 52.1302 47.0273 54.3438 47.6914C56.5573 48.3424 58.3346 49.0911 59.6758 49.9375C61.0169 50.7708 62 51.7344 62.625 52.8281C63.25 53.9089 63.5625 55.1784 63.5625 56.6367C63.5625 59.0065 62.651 60.8945 60.8281 62.3008C59.0182 63.694 56.5573 64.3906 53.4453 64.3906C51.388 64.3906 49.4935 64.013 47.7617 63.2578C46.043 62.4896 44.7018 61.4349 43.7383 60.0938C42.7878 58.7526 42.3125 57.1901 42.3125 55.4062H47.2539C47.2539 57.0208 47.7878 58.2708 48.8555 59.1562C49.9232 60.0417 51.4531 60.4844 53.4453 60.4844C55.1641 60.4844 56.4531 60.1393 57.3125 59.4492C58.1849 58.7461 58.6211 57.8216 58.6211 56.6758ZM84.2852 51.9492H72.8398V64H67.8984V35.5625H85.9648V39.5469H72.8398V48.0039H84.2852V51.9492Z" fill="white"></path></svg>