<svg xmlns="http://www.w3.org/2000/svg" width="99" height="99" viewBox="0 0 99 99" fill="none"><path d="M49.5 99C76.8381 99 99 76.8381 99 49.5C99 22.1619 76.8381 0 49.5 0C22.1619 0 0 22.1619 0 49.5C0 76.8381 22.1619 99 49.5 99Z" fill="#185057"></path><path d="M49.9999 30.3761C49.3942 30.3761 48.9072 30.8639 48.9072 31.4688C48.9072 32.0317 49.3307 32.5002 49.8905 32.5557C50.5386 32.62 51.0926 32.1153 51.0926 31.4688C51.0926 30.863 50.6047 30.3761 49.9999 30.3761Z" fill="white"></path><path d="M71.875 32.5625C68.8595 32.5625 66.4062 30.1092 66.4062 27.0938C66.4062 26.4898 65.9165 26 65.3125 26H34.6875C34.0835 26 33.5938 26.4898 33.5938 27.0938C33.5938 30.1092 31.1405 32.5625 28.125 32.5625C27.521 32.5625 27.0312 33.0523 27.0312 33.6562V51.5052C27.0312 65.4151 36.0979 77.8793 49.6859 81.954C49.7884 81.9846 49.8941 82 50 82C50.1059 82 50.2119 81.9846 50.3142 81.9538C63.6079 77.9661 72.9688 65.7194 72.9688 51.5052V33.6562C72.9688 33.0523 72.479 32.5625 71.875 32.5625ZM70.7812 51.5052C70.7812 64.5698 62.4446 75.884 50 79.7625C37.6546 75.9149 29.2188 64.4982 29.2188 51.5052V34.6721C32.5668 34.1911 35.2223 31.5356 35.7034 28.1875H64.2966C64.7777 31.5356 67.4332 34.1911 70.7812 34.6721V51.5052Z" fill="white"></path><path d="M67.9388 36.1161C65.6579 35.1172 63.8516 33.3108 62.8527 31.0299C62.6783 30.632 62.2852 30.375 61.8508 30.375H54.3728C53.7688 30.375 53.2791 30.8648 53.2791 31.4688C53.2791 32.0727 53.7688 32.5625 54.3728 32.5625H61.1592C62.3148 34.8245 64.1443 36.6539 66.4062 37.8095V51.5052C66.4062 62.2089 59.9806 71.4445 50 75.1415C40.0194 71.4444 33.5938 62.2089 33.5938 51.5052V37.8095C35.8557 36.6539 37.6851 34.8245 38.8408 32.5625H45.6272C46.2312 32.5625 46.7209 32.0727 46.7209 31.4688C46.7209 30.8648 46.2312 30.375 45.6272 30.375H38.1492C37.7148 30.375 37.3217 30.6321 37.1473 31.0299C36.1484 33.3108 34.3421 35.1172 32.0612 36.1161C31.6634 36.2904 31.4062 36.6836 31.4062 37.118V51.5052C31.4062 63.2316 38.659 73.4516 49.6351 77.3358C49.7531 77.3776 49.8765 77.3985 50 77.3985C50.1235 77.3985 50.2469 77.3776 50.3649 77.3358C61.3318 73.4549 68.5938 63.2411 68.5938 51.5052V37.118C68.5938 36.6835 68.3366 36.2904 67.9388 36.1161Z" fill="white"></path><path d="M50 41.9688C44.5722 41.9688 40.1562 46.3847 40.1562 51.8125C40.1562 57.2403 44.5722 61.6562 50 61.6562C55.4278 61.6562 59.8438 57.2403 59.8438 51.8125C59.8438 46.3847 55.4278 41.9688 50 41.9688ZM50 59.4688C45.7783 59.4688 42.3438 56.0342 42.3438 51.8125C42.3438 47.5908 45.7783 44.1562 50 44.1562C54.2217 44.1562 57.6562 47.5908 57.6562 51.8125C57.6562 56.0342 54.2217 59.4688 50 59.4688Z" fill="white"></path><path d="M55.1485 48.8515C54.7213 48.4245 54.0289 48.4245 53.6016 48.8515L48.9063 53.5469L47.4922 52.1329C47.065 51.7059 46.3727 51.7059 45.9453 52.1329C45.5182 52.56 45.5182 53.2525 45.9453 53.6798L48.1328 55.8673C48.3466 56.0806 48.6263 56.1875 48.9063 56.1875C49.1863 56.1875 49.4661 56.0806 49.6797 55.8671L55.1485 50.3984C55.5756 49.9713 55.5756 49.2787 55.1485 48.8515Z" fill="white"></path></svg>