<svg xmlns="http://www.w3.org/2000/svg" width="99" height="99" viewBox="0 0 99 99" fill="none"><circle cx="49.5" cy="49.5" r="49.5" fill="#185057"></circle><path d="M39.2039 46.0645C37.7583 46.0645 36.4699 46.9804 35.9828 48.355H21.8101C21.1804 46.5655 19.2192 45.635 17.4297 46.2647C15.6402 46.8949 14.7097 48.8561 15.3394 50.6455C15.9696 52.435 17.9308 53.3656 19.7203 52.7353C20.6939 52.392 21.4667 51.6191 21.8101 50.6455H35.9689C36.5985 52.435 38.5597 53.3656 40.3492 52.7214C42.1387 52.0911 43.0692 50.1299 42.425 48.3405C41.953 46.9804 40.6501 46.0645 39.2039 46.0645Z" fill="white" fill-opacity="0.1"></path><path d="M39.2034 57.517C37.7579 57.517 36.4694 58.433 35.9823 59.8075H22.0243C21.6664 59.8075 21.323 59.9792 21.1083 60.2655L19.6051 62.2697C19.2758 62.1551 18.9324 62.0981 18.5885 62.0981C16.6849 62.0981 15.1387 63.6443 15.1387 65.5339C15.1387 67.438 16.6849 68.9837 18.5745 68.9837C20.4786 68.9837 22.0243 67.438 22.0243 65.5479C22.0243 64.8612 21.8241 64.2024 21.4517 63.6298L22.5969 62.0981H35.9823C36.6126 63.8876 38.5737 64.8181 40.3632 64.1739C42.1527 63.5436 43.0833 61.5825 42.4391 59.793C41.9525 58.433 40.6496 57.517 39.2034 57.517Z" fill="white" fill-opacity="0.1"></path><path d="M39.2039 68.9698C37.3003 68.9698 35.7681 70.5015 35.7681 72.4057C35.7681 72.9207 35.8827 73.4218 36.112 73.8803L29.5697 80.4226H21.8101C21.1804 78.6331 19.2192 77.7026 17.4297 78.3323C15.6402 78.9625 14.7097 80.9237 15.3394 82.7132C15.9696 84.5027 17.9308 85.4332 19.7203 84.803C20.6939 84.4596 21.4667 83.6868 21.8101 82.7132H30.0417C30.3426 82.7132 30.6434 82.5985 30.8582 82.3838L37.7438 75.4976C38.2018 75.7269 38.7029 75.8415 39.2185 75.8415C41.1226 75.8415 42.6543 74.3098 42.6543 72.4057C42.6543 70.5015 41.108 68.9698 39.2039 68.9698Z" fill="white" fill-opacity="0.1"></path><path d="M39.2032 34.6116C37.7576 34.6116 36.4692 35.5276 35.9821 36.9022H22.5967L21.4514 35.3705C22.4966 33.7957 22.0671 31.6623 20.4924 30.6032C18.9176 29.558 16.7848 29.9875 15.7251 31.5622C14.6805 33.137 15.1099 35.2698 16.6847 36.3295C17.2428 36.7014 17.9155 36.9022 18.5883 36.9022C18.9322 36.9022 19.2755 36.8446 19.6049 36.7305L21.1081 38.7347C21.3228 39.0211 21.6662 39.1927 22.0241 39.1927H35.9821C36.6124 40.9822 38.5735 41.9128 40.363 41.2686C42.1525 40.6383 43.083 38.6771 42.4388 36.8876C41.9523 35.5276 40.6493 34.6116 39.2032 34.6116Z" fill="white" fill-opacity="0.1"></path><path d="M19.7203 20.6675C20.6939 20.3241 21.4667 19.5513 21.8101 18.5777H29.5697L36.112 25.12C35.8827 25.578 35.7681 26.079 35.7681 26.5946C35.7681 28.4987 37.3003 30.0304 39.2039 30.0304C41.108 30.0304 42.6397 28.4987 42.6397 26.5946C42.6397 24.6905 41.108 23.1588 39.2039 23.1588C38.6889 23.1588 38.1878 23.2734 37.7298 23.5021L30.8436 16.6165C30.6289 16.4018 30.3426 16.2871 30.0277 16.2871H21.8101C21.1804 14.4976 19.2192 13.5671 17.4297 14.1968C15.6402 14.827 14.7097 16.7882 15.3394 18.5777C15.9696 20.3672 17.9308 21.2977 19.7203 20.6675Z" fill="white" fill-opacity="0.1"></path><path d="M50.6553 77.2014V63.0426C52.0299 62.5561 52.9459 61.2676 52.9459 59.8215C52.9604 57.9179 51.4287 56.3857 49.5246 56.3717C47.6205 56.3571 46.0888 57.8888 46.0742 59.793C46.0742 61.2531 46.9908 62.5561 48.3648 63.0426V77.2014C46.5753 77.831 45.6447 79.7922 46.275 81.5817C46.9047 83.3712 48.8658 84.3017 50.6553 83.672C52.4448 83.0424 53.3753 81.0806 52.7457 79.2911C52.4023 78.3181 51.6289 77.5447 50.6553 77.2014Z" fill="white" fill-opacity="0.1"></path><path d="M48.3654 21.7989V35.9571C46.9914 36.4442 46.0748 37.7326 46.0748 39.1782C46.0608 41.0823 47.5925 42.614 49.4967 42.6286C51.4008 42.6425 52.9325 41.1108 52.9465 39.2067C52.9465 37.7466 52.0305 36.4442 50.6559 35.9571V21.7989C52.4454 21.1686 53.3759 19.2075 52.7463 17.418C52.1166 15.6285 50.1549 14.6979 48.3654 15.3282C46.5759 15.9579 45.6453 17.919 46.2756 19.7085C46.6189 20.6821 47.3923 21.455 48.3654 21.7989Z" fill="white" fill-opacity="0.1"></path><path d="M60.9488 52.7353C61.9224 52.392 62.6952 51.6191 63.0386 50.6455H77.1974C77.8271 52.435 79.7882 53.3656 81.5777 52.7214C83.3672 52.0911 84.2977 50.1299 83.6535 48.3405C83.167 46.9665 81.864 46.0645 80.4185 46.0645C78.9723 46.0645 77.6839 46.9804 77.1974 48.355H63.0386C62.4089 46.5655 60.4477 45.635 58.6582 46.2647C56.8687 46.8949 55.9382 48.8561 56.5679 50.6455C57.1981 52.435 59.1593 53.3656 60.9488 52.7353Z" fill="white" fill-opacity="0.1"></path><path d="M59.818 30.0304C61.7221 30.0304 63.2538 28.4987 63.2538 26.5946C63.2538 26.079 63.1397 25.578 62.9104 25.12L69.4527 18.5777H77.2118C77.8421 20.3672 79.8032 21.2977 81.5927 20.6675C83.3822 20.0378 84.3128 18.0766 83.6831 16.2871C83.0528 14.4976 81.0917 13.5671 79.3022 14.1968C78.3286 14.5407 77.5558 15.3135 77.2118 16.2871H68.9802C68.6799 16.2871 68.379 16.4018 68.1643 16.6165L61.2786 23.5021C60.8201 23.2734 60.319 23.1588 59.804 23.1588C57.8999 23.1588 56.3682 24.6905 56.3682 26.5946C56.3682 28.4987 57.9144 30.0304 59.818 30.0304Z" fill="white" fill-opacity="0.1"></path><path d="M60.9488 41.2825C61.9224 40.9391 62.6952 40.1663 63.0386 39.1927H76.9966C77.3545 39.1927 77.6984 39.021 77.9132 38.7347L79.4163 36.7305C79.7457 36.8446 80.0891 36.9022 80.4324 36.9022C82.3366 36.9022 83.8683 35.3705 83.8683 33.4663C83.8683 31.5622 82.3366 30.0305 80.4324 30.0305C78.5289 30.0305 76.9966 31.5768 76.9966 33.4663C76.9966 34.1391 77.1974 34.7978 77.5692 35.3705L76.424 36.9022H63.0386C62.4089 35.1127 60.4477 34.1821 58.6582 34.8118C56.8687 35.4421 55.9382 37.4032 56.5679 39.1927C57.1981 40.9822 59.1593 41.9127 60.9488 41.2825Z" fill="white" fill-opacity="0.1"></path><path d="M80.4336 78.1321C78.988 78.1321 77.6996 79.0481 77.2125 80.4226H69.4534L62.9111 73.8803C63.1404 73.4218 63.2545 72.9207 63.2545 72.4057C63.2545 70.5015 61.7228 68.9698 59.8186 68.9698C57.9151 68.9698 56.3828 70.5015 56.3828 72.4057C56.3828 74.3098 57.9151 75.8415 59.8186 75.8415C60.3342 75.8415 60.8353 75.7269 61.2933 75.4976L68.1795 82.3838C68.3942 82.5985 68.6805 82.7132 68.9954 82.7132H77.227C77.8567 84.5027 79.8184 85.4332 81.6079 84.789C83.3974 84.1588 84.328 82.1976 83.6838 80.4081C83.1827 79.0481 81.8797 78.1321 80.4336 78.1321Z" fill="white" fill-opacity="0.1"></path><path d="M82.3366 62.6708C81.7785 62.2984 81.1057 62.0982 80.4324 62.0982C80.0891 62.0982 79.7457 62.1552 79.4163 62.2699L77.9132 60.2656C77.6984 59.9793 77.3545 59.8076 76.9966 59.8076H63.0386C62.4089 58.0182 60.4477 57.0876 58.6582 57.7173C56.8687 58.3475 55.9382 60.3087 56.5679 62.0982C57.1981 63.8877 59.1593 64.8182 60.9488 64.188C61.9224 63.8446 62.6952 63.0718 63.0386 62.0982H76.424L77.5693 63.6299C76.5246 65.2046 76.9541 67.3375 78.5289 68.3972C80.1036 69.4424 82.2365 69.0129 83.2956 67.4382C84.3554 65.8634 83.9259 63.73 82.3366 62.6708Z" fill="white" fill-opacity="0.1"></path><path d="M54.0914 49.5001C54.0914 52.0299 52.0408 54.0812 49.5103 54.0812C46.9804 54.0812 44.9292 52.0299 44.9292 49.5001C44.9292 46.9696 46.9804 44.9189 49.5103 44.9189C52.0408 44.9189 54.0914 46.9696 54.0914 49.5001Z" fill="white" fill-opacity="0.1"></path><path d="M26.3066 45.3516C23.5996 45.3516 21.4023 44.502 19.7148 42.8027C18.0391 41.0918 17.2012 38.8184 17.2012 35.9824V35.4551C17.2012 33.5566 17.5645 31.8633 18.291 30.375C19.0293 28.875 20.0605 27.709 21.3848 26.877C22.709 26.0449 24.1855 25.6289 25.8145 25.6289C28.4043 25.6289 30.4023 26.4551 31.8086 28.1074C33.2266 29.7598 33.9355 32.0977 33.9355 35.1211V36.8438H21.5078C21.6367 38.4141 22.1582 39.6562 23.0723 40.5703C23.998 41.4844 25.1582 41.9414 26.5527 41.9414C28.5098 41.9414 30.1035 41.1504 31.334 39.5684L33.6367 41.7656C32.875 42.9023 31.8555 43.7871 30.5781 44.4199C29.3125 45.041 27.8887 45.3516 26.3066 45.3516ZM25.7969 29.0566C24.625 29.0566 23.6758 29.4668 22.9492 30.2871C22.2344 31.1074 21.7773 32.25 21.5781 33.7148H29.7168V33.3984C29.623 31.9688 29.2422 30.8906 28.5742 30.1641C27.9062 29.4258 26.9805 29.0566 25.7969 29.0566ZM41.2832 25.9805L41.4062 27.9668C42.7422 26.4082 44.5703 25.6289 46.8906 25.6289C49.4336 25.6289 51.1738 26.6016 52.1113 28.5469C53.4941 26.6016 55.4395 25.6289 57.9473 25.6289C60.0449 25.6289 61.6035 26.209 62.623 27.3691C63.6543 28.5293 64.1816 30.2402 64.2051 32.502V45H59.9336V32.625C59.9336 31.418 59.6699 30.5332 59.1426 29.9707C58.6152 29.4082 57.7422 29.127 56.5234 29.127C55.5508 29.127 54.7539 29.3906 54.1328 29.918C53.5234 30.4336 53.0957 31.1133 52.8496 31.957L52.8672 45H48.5957V32.4844C48.5371 30.2461 47.3945 29.127 45.168 29.127C43.457 29.127 42.2441 29.8242 41.5293 31.2188V45H37.2578V25.9805H41.2832ZM79.252 39.832C79.252 39.0703 78.9355 38.4902 78.3027 38.0918C77.6816 37.6934 76.6445 37.3418 75.1914 37.0371C73.7383 36.7324 72.5254 36.3457 71.5527 35.877C69.4199 34.8457 68.3535 33.3516 68.3535 31.3945C68.3535 29.7539 69.0449 28.3828 70.4277 27.2812C71.8105 26.1797 73.5684 25.6289 75.7012 25.6289C77.9746 25.6289 79.8086 26.1914 81.2031 27.3164C82.6094 28.4414 83.3125 29.9004 83.3125 31.6934H79.041C79.041 30.873 78.7363 30.1934 78.127 29.6543C77.5176 29.1035 76.709 28.8281 75.7012 28.8281C74.7637 28.8281 73.9961 29.0449 73.3984 29.4785C72.8125 29.9121 72.5195 30.4922 72.5195 31.2188C72.5195 31.875 72.7949 32.3848 73.3457 32.748C73.8965 33.1113 75.0098 33.4805 76.6855 33.8555C78.3613 34.2188 79.6738 34.6582 80.623 35.1738C81.584 35.6777 82.293 36.2871 82.75 37.002C83.2188 37.7168 83.4531 38.584 83.4531 39.6035C83.4531 41.3145 82.7441 42.7031 81.3262 43.7695C79.9082 44.8242 78.0508 45.3516 75.7539 45.3516C74.1953 45.3516 72.8066 45.0703 71.5879 44.5078C70.3691 43.9453 69.4199 43.1719 68.7402 42.1875C68.0605 41.2031 67.7207 40.1426 67.7207 39.0059H71.8691C71.9277 40.0137 72.3086 40.793 73.0117 41.3438C73.7148 41.8828 74.6465 42.1523 75.8066 42.1523C76.9316 42.1523 77.7871 41.9414 78.373 41.5195C78.959 41.0859 79.252 40.5234 79.252 39.832Z" fill="white"></path><path d="M43.1484 78H25.9395V75.0645L34.4648 65.7656C35.6953 64.3945 36.5684 63.252 37.084 62.3379C37.6113 61.4121 37.875 60.4863 37.875 59.5605C37.875 58.3418 37.5293 57.3574 36.8379 56.6074C36.1582 55.8574 35.2383 55.4824 34.0781 55.4824C32.6953 55.4824 31.623 55.9043 30.8613 56.748C30.0996 57.5918 29.7188 58.7461 29.7188 60.2109H25.4473C25.4473 58.6523 25.7988 57.252 26.502 56.0098C27.2168 54.7559 28.2305 53.7832 29.543 53.0918C30.8672 52.4004 32.3906 52.0547 34.1133 52.0547C36.5977 52.0547 38.5547 52.6816 39.9844 53.9355C41.4258 55.1777 42.1465 56.9004 42.1465 59.1035C42.1465 60.3809 41.7832 61.7227 41.0566 63.1289C40.3418 64.5234 39.1641 66.1113 37.5234 67.8926L31.2656 74.5898H43.1484V78ZM49.3359 73.5C50.1328 73.5 50.748 73.7285 51.1816 74.1855C51.6152 74.6309 51.832 75.1934 51.832 75.873C51.832 76.541 51.6152 77.0977 51.1816 77.543C50.748 77.9766 50.1328 78.1934 49.3359 78.1934C48.5742 78.1934 47.9707 77.9766 47.5254 77.543C47.0801 77.1094 46.8574 76.5527 46.8574 75.873C46.8574 75.1934 47.0742 74.6309 47.5078 74.1855C47.9414 73.7285 48.5508 73.5 49.3359 73.5ZM73.1367 67.2246C73.1367 70.9043 72.4453 73.6816 71.0625 75.5566C69.6914 77.4199 67.5996 78.3516 64.7871 78.3516C62.0215 78.3516 59.9355 77.4434 58.5293 75.627C57.1348 73.7988 56.4199 71.0977 56.3848 67.5234V63.0938C56.3848 59.4141 57.0703 56.6543 58.4414 54.8145C59.8242 52.9746 61.9277 52.0547 64.752 52.0547C67.5527 52.0547 69.6387 52.9512 71.0098 54.7441C72.3926 56.5371 73.1016 59.2207 73.1367 62.7949V67.2246ZM68.8652 62.4434C68.8652 60.041 68.5371 58.2832 67.8809 57.1699C67.2246 56.0449 66.1816 55.4824 64.752 55.4824C63.3574 55.4824 62.332 56.0156 61.6758 57.082C61.0195 58.1367 60.6738 59.7891 60.6387 62.0391V67.8398C60.6387 70.2305 60.9727 72.0117 61.6406 73.1836C62.3086 74.3555 63.3574 74.9414 64.7871 74.9414C66.1582 74.9414 67.1719 74.4023 67.8281 73.3242C68.4844 72.2344 68.8301 70.5352 68.8652 68.2266V62.4434Z" fill="white"></path></svg>