<svg xmlns="http://www.w3.org/2000/svg" width="20" height="20" viewBox="0 0 20 20" fill="none"><path d="M6.66667 11.3333C5.19392 11.3333 4 12.5272 4 13.9999C4 15.4727 5.19392 16.6666 6.66667 16.6666C8.13942 16.6666 9.33333 15.4727 9.33333 13.9999C9.33167 12.5278 8.13875 11.3349 6.66667 11.3333ZM6.66667 15.9999C5.56208 15.9999 4.66667 15.1045 4.66667 13.9999C4.66667 12.8953 5.56208 11.9999 6.66667 11.9999C7.77125 11.9999 8.66667 12.8953 8.66667 13.9999C8.66558 15.104 7.77079 15.9988 6.66667 15.9999Z" fill="black"></path><path d="M12.3337 12.6667H10.786C10.7154 12.4477 10.6274 12.2348 10.5227 12.03L11.617 10.936C11.7471 10.8058 11.7471 10.5948 11.617 10.4647L10.2023 9.05033C10.0722 8.92021 9.86116 8.92021 9.73099 9.05033L8.63699 10.1443C8.43216 10.0397 8.21924 9.95162 8.00033 9.881V8.33333C8.00033 8.14925 7.85108 8 7.66699 8H5.66699C5.48291 8 5.33366 8.14925 5.33366 8.33333V9.881C5.11474 9.95162 4.90183 10.0397 4.69699 10.1443L3.60299 9.05033C3.47283 8.92021 3.26183 8.92021 3.13166 9.05033L1.71699 10.4647C1.58687 10.5948 1.58687 10.8058 1.71699 10.936L2.81133 12.03C2.70658 12.2348 2.61853 12.4477 2.54799 12.6667H1.00033C0.816242 12.6667 0.666992 12.8159 0.666992 13V15C0.666992 15.1841 0.816242 15.3333 1.00033 15.3333H2.54799C2.61853 15.5523 2.70658 15.7652 2.81133 15.97L1.71699 17.064C1.58687 17.1942 1.58687 17.4052 1.71699 17.5353L3.13166 18.9497C3.26183 19.0798 3.47283 19.0798 3.60299 18.9497L4.69699 17.8557C4.90183 17.9603 5.11474 18.0484 5.33366 18.119V19.6667C5.33366 19.8507 5.48291 20 5.66699 20H7.66699C7.85108 20 8.00033 19.8507 8.00033 19.6667V18.119C8.21924 18.0484 8.43216 17.9603 8.63699 17.8557L9.73099 18.9497C9.86116 19.0798 10.0722 19.0798 10.2023 18.9497L11.617 17.5353C11.7471 17.4052 11.7471 17.1942 11.617 17.064L10.5227 15.97C10.6274 15.7652 10.7154 15.5523 10.786 15.3333H12.3337C12.5177 15.3333 12.667 15.1841 12.667 15V13C12.667 12.8159 12.5177 12.6667 12.3337 12.6667ZM12.0003 14.6667H10.5357C10.3837 14.6667 10.251 14.7695 10.213 14.9167C10.1278 15.2476 9.99653 15.565 9.82299 15.8593C9.74578 15.9903 9.76687 16.1568 9.87432 16.2643L10.91 17.3L9.96699 18.2427L8.93166 17.2073C8.82412 17.0997 8.65732 17.0786 8.52632 17.156C8.23207 17.3296 7.91487 17.4609 7.58399 17.546C7.43687 17.584 7.33403 17.7167 7.33399 17.8687V19.3333H6.00033V17.8687C6.00028 17.7167 5.89745 17.584 5.75033 17.546C5.41945 17.4609 5.10224 17.3296 4.80799 17.156C4.67699 17.0786 4.5102 17.0997 4.40266 17.2073L3.36699 18.2427L2.42399 17.3L3.45966 16.2647C3.56712 16.1572 3.58824 15.9906 3.51099 15.8597C3.33745 15.5653 3.20616 15.248 3.12099 14.917C3.08299 14.7699 2.95028 14.667 2.79833 14.667H1.33366V13.3333H2.79833C2.95028 13.3333 3.08299 13.2305 3.12099 13.0833C3.20616 12.7524 3.33745 12.435 3.51099 12.1407C3.58824 12.0098 3.56712 11.8432 3.45966 11.7357L2.42399 10.7L3.36733 9.757L4.40266 10.7923C4.5102 10.9 4.67699 10.9211 4.80799 10.8437C5.10224 10.6701 5.41945 10.5388 5.75033 10.4537C5.89745 10.4157 6.00028 10.283 6.00033 10.131V8.66667H7.33366V10.1313C7.3337 10.2833 7.43653 10.416 7.58366 10.454C7.91453 10.5391 8.23174 10.6704 8.52599 10.844C8.65699 10.9214 8.82374 10.9003 8.93132 10.7927L9.96699 9.75733L10.9103 10.7003L9.87466 11.7357C9.7672 11.8432 9.74612 12.0098 9.82333 12.1407C9.99687 12.435 10.1282 12.7524 10.2133 13.0833C10.2513 13.2305 10.384 13.3333 10.536 13.3333H12.0003V14.6667Z" fill="black"></path><path d="M16.3337 5.66667H15.2703C15.1927 3.73333 14.4337 0.615333 12.0003 0.353V0.333333C12.0003 0.14925 11.8511 0 11.667 0H9.66699C9.48291 0 9.33366 0.14925 9.33366 0.333333V0.353C6.90033 0.615333 6.14133 3.73333 6.06366 5.66667H5.00033C4.81624 5.66667 4.66699 5.81592 4.66699 6V7.33333C4.66699 7.51742 4.81624 7.66667 5.00033 7.66667H16.3337C16.5177 7.66667 16.667 7.51742 16.667 7.33333V6C16.667 5.81592 16.5177 5.66667 16.3337 5.66667ZM16.0003 7H5.33366V6.33333H8.00033V5.66667H6.73099C6.80033 3.97733 7.41233 1.30433 9.33366 1.02567V4H10.0003V0.666667H11.3337V4H12.0003V1.02567C13.9217 1.30433 14.5337 3.97733 14.603 5.66667H8.66699V6.33333H16.0003V7Z" fill="black"></path><path d="M19.0003 10.3333H18.4147L18.8287 9.919C18.9588 9.78883 18.9588 9.57783 18.8287 9.44767L17.886 8.505C17.7558 8.37487 17.5448 8.37487 17.4147 8.505L17.0003 8.919V8.33333C17.0003 8.14925 16.8511 8 16.667 8H15.3337C15.1496 8 15.0003 8.14925 15.0003 8.33333V8.919L14.586 8.505C14.4558 8.37487 14.2448 8.37487 14.1147 8.505L13.172 9.44767C13.0419 9.57783 13.0419 9.78883 13.172 9.919L13.586 10.3333H13.0003C12.8162 10.3333 12.667 10.4826 12.667 10.6667V12C12.667 12.1841 12.8162 12.3333 13.0003 12.3333H13.586L13.172 12.7477C13.0419 12.8778 13.0419 13.0888 13.172 13.219L14.1147 14.1617C14.2448 14.2918 14.4558 14.2918 14.586 14.1617L15.0003 13.7473V14.3333C15.0003 14.5174 15.1496 14.6667 15.3337 14.6667H16.667C16.8511 14.6667 17.0003 14.5174 17.0003 14.3333V13.7473L17.4147 14.1617C17.5469 14.2867 17.7537 14.2867 17.886 14.1617L18.8287 13.219C18.9588 13.0888 18.9588 12.8778 18.8287 12.7477L18.4147 12.3333H19.0003C19.1844 12.3333 19.3337 12.1841 19.3337 12V10.6667C19.3337 10.4826 19.1844 10.3333 19.0003 10.3333ZM18.667 11.6667H17.884C17.7434 11.6667 17.6179 11.755 17.5703 11.8873C17.5508 11.9427 17.5286 11.9971 17.5037 12.0503C17.4432 12.1781 17.4699 12.3302 17.5703 12.4297L18.124 12.9833L17.6503 13.4547L17.0967 12.9C16.9973 12.7999 16.8456 12.7732 16.718 12.8333C16.6652 12.8583 16.6111 12.8806 16.556 12.9C16.4227 12.947 16.3337 13.073 16.3337 13.2143V14H15.667V13.217C15.667 13.0757 15.5779 12.9497 15.4447 12.9027C15.3895 12.8833 15.3355 12.861 15.2827 12.836C15.155 12.7758 15.0034 12.8025 14.904 12.9027L14.3503 13.4547L13.879 12.9833L14.4337 12.4297C14.5341 12.3302 14.5608 12.1781 14.5003 12.0503C14.4754 11.9972 14.4532 11.9427 14.4337 11.8873C14.3857 11.7538 14.2585 11.6653 14.1167 11.6667H13.3337V11H14.1167C14.2573 11 14.3828 10.9117 14.4303 10.7793C14.4498 10.7239 14.4721 10.6695 14.497 10.6163C14.5575 10.4885 14.5307 10.3365 14.4303 10.237L13.879 9.68333L14.3503 9.212L14.9043 9.76667C15.0038 9.86708 15.1559 9.89379 15.2837 9.83333C15.336 9.80813 15.3898 9.78587 15.4447 9.76667C15.5788 9.71929 15.6681 9.59196 15.667 9.44967V8.66667H16.3337V9.44967C16.3337 9.591 16.4227 9.71696 16.556 9.764C16.6109 9.78321 16.6646 9.80546 16.717 9.83067C16.8448 9.89113 16.9968 9.86442 17.0963 9.764L17.6503 9.21033L18.1217 9.68167L17.567 10.237C17.4666 10.3365 17.4399 10.4885 17.5003 10.6163C17.5252 10.6695 17.5475 10.7239 17.567 10.7793C17.6145 10.9117 17.74 11 17.8807 11H18.667V11.6667Z" fill="black"></path><path d="M16.0003 10C15.264 10 14.667 10.597 14.667 11.3333C14.667 12.0697 15.264 12.6667 16.0003 12.6667C16.7367 12.6667 17.3337 12.0697 17.3337 11.3333C17.3337 10.597 16.7367 10 16.0003 10ZM16.0003 12C15.6321 12 15.3337 11.7015 15.3337 11.3333C15.3337 10.9651 15.6321 10.6667 16.0003 10.6667C16.3685 10.6667 16.667 10.9651 16.667 11.3333C16.667 11.7015 16.3685 12 16.0003 12Z" fill="black"></path></svg>