<svg xmlns="http://www.w3.org/2000/svg" width="13" height="8" viewBox="0 0 13 8" fill="none"><path d="M12.3337 5.66667H11.2703C11.1927 3.73333 10.4337 0.615333 8.00033 0.353V0.333333C8.00033 0.14925 7.85108 0 7.66699 0H5.66699C5.48291 0 5.33366 0.14925 5.33366 0.333333V0.353C2.90033 0.615333 2.14133 3.73333 2.06366 5.66667H1.00033C0.816242 5.66667 0.666992 5.81592 0.666992 6V7.33333C0.666992 7.51742 0.816242 7.66667 1.00033 7.66667H12.3337C12.5177 7.66667 12.667 7.51742 12.667 7.33333V6C12.667 5.81592 12.5177 5.66667 12.3337 5.66667ZM12.0003 7H1.33366V6.33333H4.00033V5.66667H2.73099C2.80033 3.97733 3.41233 1.30433 5.33366 1.02567V4H6.00033V0.666667H7.33366V4H8.00033V1.02567C9.92166 1.30433 10.5337 3.97733 10.603 5.66667H4.66699V6.33333H12.0003V7Z" fill="#128391"></path></svg>